<svg width="24" height="25" viewBox="0 0 24 25" fill="none" xmlns="http://www.w3.org/2000/svg">
<g opacity="0.9">
<path d="M19.1167 4.03125H4.88333C4.39533 4.03125 4 4.42782 4 4.91734V19.1958C4 19.6847 4.39533 20.0812 4.88333 20.0812H12.5467V13.8659H10.4613V11.4437H12.5467V9.65744C12.5467 7.58432 13.8087 6.45547 15.6527 6.45547C16.536 6.45547 17.2947 6.52167 17.516 6.5511V8.71785L16.2373 8.71852C15.2347 8.71852 15.0407 9.19667 15.0407 9.89752V11.4443H17.432L17.1207 13.8666H15.0407V20.0812H19.118C19.6047 20.0812 20 19.6847 20 19.1952V4.91734C20 4.42782 19.6047 4.03125 19.1167 4.03125Z" fill="black"/>
</g>
</svg>
