<svg width="24" height="25" viewBox="0 0 24 25" fill="none" xmlns="http://www.w3.org/2000/svg">
<g opacity="0.9">
<mask id="mask0" mask-type="alpha" maskUnits="userSpaceOnUse" x="4" y="3" width="17" height="18">
<path fill-rule="evenodd" clip-rule="evenodd" d="M4 3.53516H20.9946V20.5809H4V3.53516Z" fill="white"/>
</mask>
<g mask="url(#mask0)">
<path fill-rule="evenodd" clip-rule="evenodd" d="M12.4973 3.53516C10.1896 3.53516 9.90021 3.54497 8.99389 3.58645C8.08944 3.62783 7.47174 3.77194 6.93125 3.98267C6.37248 4.20047 5.8986 4.49192 5.42618 4.96579C4.95379 5.43969 4.66324 5.91505 4.44612 6.47557C4.23604 7.01775 4.09239 7.63738 4.05113 8.54465C4.00978 9.45381 4 9.74408 4 12.059C4 14.374 4.00978 14.6643 4.05113 15.5734C4.09239 16.4807 4.23604 17.1003 4.44612 17.6425C4.66324 18.203 4.95379 18.6784 5.42618 19.1523C5.8986 19.6261 6.37248 19.9176 6.93125 20.1354C7.47174 20.3461 8.08944 20.4902 8.99389 20.5316C9.90021 20.5731 10.1896 20.5829 12.4973 20.5829C14.8051 20.5829 15.0944 20.5731 16.0008 20.5316C16.9052 20.4902 17.5229 20.3461 18.0634 20.1354C18.6222 19.9176 19.096 19.6261 19.5685 19.1523C20.0408 18.6784 20.3314 18.203 20.5486 17.6425C20.7586 17.1003 20.9023 16.4807 20.9435 15.5734C20.9849 14.6643 20.9946 14.374 20.9946 12.059C20.9946 9.74408 20.9849 9.45381 20.9435 8.54465C20.9023 7.63738 20.7586 7.01775 20.5486 6.47557C20.3314 5.91505 20.0408 5.43969 19.5685 4.96579C19.096 4.49192 18.6222 4.20047 18.0634 3.98267C17.5229 3.77194 16.9052 3.62783 16.0008 3.58645C15.0944 3.54497 14.8051 3.53516 12.4973 3.53516ZM12.4973 5.07099C14.7662 5.07099 15.035 5.07968 15.931 5.12069C16.7594 5.15859 17.2094 5.29745 17.5088 5.41418C17.9054 5.56881 18.1885 5.75352 18.4858 6.05181C18.7832 6.35007 18.9673 6.63402 19.1215 7.03189C19.2378 7.33225 19.3763 7.78358 19.414 8.61465C19.4549 9.51346 19.4636 9.78306 19.4636 12.059C19.4636 14.335 19.4549 14.6046 19.414 15.5034C19.3763 16.3345 19.2378 16.7858 19.1215 17.0862C18.9673 17.484 18.7832 17.768 18.4858 18.0662C18.1885 18.3645 17.9054 18.5492 17.5088 18.7039C17.2094 18.8206 16.7594 18.9595 15.931 18.9974C15.0351 19.0384 14.7664 19.0471 12.4973 19.0471C10.2283 19.0471 9.95958 19.0384 9.06367 18.9974C8.23519 18.9595 7.78527 18.8206 7.48584 18.7039C7.08921 18.5492 6.80615 18.3645 6.50882 18.0662C6.21148 17.768 6.02732 17.484 5.87317 17.0862C5.7568 16.7858 5.61837 16.3345 5.5806 15.5034C5.53971 14.6046 5.53105 14.335 5.53105 12.059C5.53105 9.78306 5.53971 9.51346 5.5806 8.61465C5.61837 7.78358 5.7568 7.33225 5.87317 7.03189C6.02732 6.63402 6.21145 6.35007 6.50882 6.05181C6.80615 5.75352 7.08921 5.56881 7.48584 5.41418C7.78527 5.29745 8.23519 5.15859 9.06367 5.12069C9.95968 5.07968 10.2284 5.07099 12.4973 5.07099Z" fill="black"/>
</g>
<path fill-rule="evenodd" clip-rule="evenodd" d="M12.5 14.5737C11.2258 14.5737 10.1929 13.5375 10.1929 12.2594C10.1929 10.9812 11.2258 9.945 12.5 9.945C13.7742 9.945 14.8072 10.9812 14.8072 12.2594C14.8072 13.5375 13.7742 14.5737 12.5 14.5737ZM12.5 8.4021C10.3763 8.4021 8.65479 10.129 8.65479 12.2594C8.65479 14.3897 10.3763 16.1166 12.5 16.1166C14.6237 16.1166 16.3453 14.3897 16.3453 12.2594C16.3453 10.129 14.6237 8.4021 12.5 8.4021Z" fill="#0A0B09"/>
<path fill-rule="evenodd" clip-rule="evenodd" d="M17.7619 7.99605C17.7619 8.66879 17.2182 9.21411 16.5476 9.21411C15.877 9.21411 15.3333 8.66879 15.3333 7.99605C15.3333 7.32332 15.877 6.77795 16.5476 6.77795C17.2182 6.77795 17.7619 7.32332 17.7619 7.99605Z" fill="#0A0B09"/>
</g>
</svg>
