<svg width="24" height="25" viewBox="0 0 24 25" fill="none" xmlns="http://www.w3.org/2000/svg">
<g opacity="0.9">
<path fill-rule="evenodd" clip-rule="evenodd" d="M7.19315 9.95605C6.87129 9.95605 6.61047 10.2178 6.61047 10.5407C6.61047 10.8635 6.87129 11.1253 7.19315 11.1253C7.51501 11.1253 7.77594 10.8635 7.77594 10.5407C7.77594 10.2178 7.51501 9.95605 7.19315 9.95605Z" fill="black"/>
<path fill-rule="evenodd" clip-rule="evenodd" d="M12.9494 9.89514C12.6029 9.89514 12.3219 10.1769 12.3219 10.5246C12.3219 10.8723 12.6029 11.1541 12.9494 11.1541C13.2959 11.1541 13.5769 10.8723 13.5769 10.5246C13.5769 10.1769 13.2959 9.89514 12.9494 9.89514Z" fill="black"/>
<mask id="mask0" mask-type="alpha" maskUnits="userSpaceOnUse" x="3" y="4" width="18" height="16">
<path fill-rule="evenodd" clip-rule="evenodd" d="M3.5 4.14575H20.424V19.8923H3.5V4.14575Z" fill="white"/>
</mask>
<g mask="url(#mask0)">
<path fill-rule="evenodd" clip-rule="evenodd" d="M18.3796 12.059C18.3796 12.059 18.3938 13.5164 16.9177 13.5164H16.4685V12.5722H16.7395C16.7395 12.5722 17.3598 12.6294 17.3527 11.6709C17.3527 11.6709 17.2314 12.059 16.3616 12.059C16.3616 12.059 15.1279 11.9698 15.1279 10.7625V10.3047C15.1279 10.3047 15.1564 9.05282 16.5113 8.95267C16.5113 8.95267 17.046 8.89545 17.3741 9.33894V9.03141H18.3796V12.059ZM12.9494 12.059C12.0317 12.059 11.2879 11.372 11.2879 10.5247C11.2879 9.67714 12.0317 8.99033 12.9494 8.99033C13.867 8.99033 14.6109 9.67714 14.6109 10.5247C14.6109 11.372 13.867 12.059 12.9494 12.059ZM10.5997 9.08143V11.9499H9.60859V9.11004C9.60859 8.72377 9.13076 8.61653 9.13076 8.61653V7.61509C10.7138 7.67941 10.5997 9.08143 10.5997 9.08143ZM8.81701 10.6694C8.80993 12.0185 7.41936 12.0571 7.41936 12.0571C6.88175 12.0571 6.57791 11.6995 6.57791 11.6995V11.9427H5.56533V7.75335C5.56111 7.75266 5.56077 7.75186 5.56533 7.75094V7.75335C5.62808 7.76353 6.57791 7.75094 6.57791 7.75094V9.35325C6.81614 8.94592 7.50493 8.95267 7.50493 8.95267C9.00446 9.09288 8.81701 10.6694 8.81701 10.6694ZM18.16 4.14575H5.76385C4.51361 4.14575 3.5 5.16253 3.5 6.41679V13.7968C3.5 15.0511 4.51361 16.0678 5.76385 16.0678H10.1422L11.6314 19.5871C11.6314 19.5871 11.7338 19.8923 11.9821 19.8923C12.2304 19.8923 12.3328 19.5871 12.3328 19.5871L13.822 16.0678H18.16C19.4104 16.0678 20.424 15.0511 20.424 13.7968V6.41679C20.424 5.16253 19.4104 4.14575 18.16 4.14575Z" fill="black"/>
</g>
<path fill-rule="evenodd" clip-rule="evenodd" d="M16.8036 9.90942C16.4649 9.90942 16.1904 10.1848 16.1904 10.5246C16.1904 10.8644 16.4649 11.1398 16.8036 11.1398C17.1424 11.1398 17.4169 10.8644 17.4169 10.5246C17.4169 10.1848 17.1424 9.90942 16.8036 9.90942Z" fill="black"/>
</g>
</svg>
