<svg width="18" height="13" viewBox="0 0 18 13" fill="none" xmlns="http://www.w3.org/2000/svg">
<path fill-rule="evenodd" clip-rule="evenodd" d="M0 1.34043C0 0.600129 0.600129 0 1.34043 0H16.6596C17.3999 0 18 0.600129 18 1.34043V12.0638C18 12.3811 17.7428 12.6383 17.4255 12.6383C17.355 12.6383 17.2874 12.6256 17.2249 12.6023C17.1625 12.6256 17.0949 12.6383 17.0243 12.6383H1.34043C0.600129 12.6383 0 12.0382 0 11.2979V1.34043ZM16.8511 11.4894V1.34043C16.8511 1.23467 16.7653 1.14894 16.6596 1.14894H1.34043C1.23467 1.14894 1.14894 1.23467 1.14894 1.34043V11.2979C1.14894 11.4036 1.23467 11.4894 1.34043 11.4894H16.8511Z" fill="white"/>
<path fill-rule="evenodd" clip-rule="evenodd" d="M5.98404 3.85616C6.28699 3.76191 6.60898 3.9311 6.70323 4.23404L7.59448 7.09877L8.57252 4.59811C8.65866 4.37784 8.87101 4.23289 9.10752 4.23289C9.34403 4.23289 9.55638 4.37784 9.64252 4.59811L10.6206 7.09877L11.5118 4.23404C11.6061 3.9311 11.928 3.76191 12.231 3.85616C12.5339 3.95042 12.7031 4.27241 12.6089 4.57535L11.2309 9.00459C11.1584 9.23757 10.9467 9.39935 10.7028 9.40804C10.459 9.41672 10.2362 9.27042 10.1474 9.04318L9.10752 6.38451L8.06769 9.04318C7.97881 9.27042 7.75608 9.41672 7.51224 9.40804C7.26839 9.39935 7.05663 9.23757 6.98415 9.00459L5.60616 4.57535C5.51191 4.27241 5.6811 3.95042 5.98404 3.85616Z" fill="white"/>
<path fill-rule="evenodd" clip-rule="evenodd" d="M11.2393 5.88111C11.2393 5.56384 11.4965 5.30664 11.8137 5.30664H13.0441C13.3613 5.30664 13.6185 5.56384 13.6185 5.88111C13.6185 6.19838 13.3613 6.45558 13.0441 6.45558H11.8137C11.4965 6.45558 11.2393 6.19838 11.2393 5.88111Z" fill="white"/>
<path fill-rule="evenodd" clip-rule="evenodd" d="M4.5957 5.88111C4.5957 5.56384 4.8529 5.30664 5.17017 5.30664H6.15444C6.47171 5.30664 6.72891 5.56384 6.72891 5.88111C6.72891 6.19838 6.47171 6.45558 6.15444 6.45558H5.17017C4.8529 6.45558 4.5957 6.19838 4.5957 5.88111Z" fill="white"/>
</svg>
