<svg width="24" height="25" viewBox="0 0 24 25" fill="none" xmlns="http://www.w3.org/2000/svg">
<g opacity="0.9">
<mask id="mask0" mask-type="alpha" maskUnits="userSpaceOnUse" x="3" y="5" width="18" height="14">
<path fill-rule="evenodd" clip-rule="evenodd" d="M3.00006 5.53601H21V18.3258H3.00006V5.53601Z" fill="white"/>
</mask>
<g mask="url(#mask0)">
<path fill-rule="evenodd" clip-rule="evenodd" d="M20.6239 7.53319C20.4169 6.74702 19.8071 6.12795 19.0324 5.91785C17.6288 5.53601 12.0001 5.53601 12.0001 5.53601C12.0001 5.53601 6.37128 5.53601 4.96758 5.91785C4.19307 6.12795 3.58312 6.74702 3.37612 7.53319C3.00006 8.95802 3.00006 11.9309 3.00006 11.9309C3.00006 11.9309 3.00006 14.9037 3.37612 16.3288C3.58312 17.1148 4.19307 17.7339 4.96758 17.9441C6.37128 18.3259 12.0001 18.3259 12.0001 18.3259C12.0001 18.3259 17.6288 18.3259 19.0324 17.9441C19.8071 17.7339 20.4169 17.1148 20.6239 16.3288C21.0001 14.9037 21.0001 11.9309 21.0001 11.9309C21.0001 11.9309 21.0001 8.95802 20.6239 7.53319Z" fill="black"/>
</g>
<path fill-rule="evenodd" clip-rule="evenodd" d="M10.5 14.5641L15 11.931L10.5 9.29773V14.5641Z" fill="white"/>
</g>
</svg>
